<svg  xmlns="http://www.w3.org/2000/svg"  width="24"  height="24"  viewBox="0 0 24 24"  fill="none"  stroke="currentColor"  stroke-width="2"  stroke-linecap="round"  stroke-linejoin="round"  class="icon icon-tabler icons-tabler-outline icon-tabler-cup"><path stroke="none" d="M0 0h24v24H0z" fill="none"/><path d="M5 11h10a2 2 0 0 1 2 2v2a8 8 0 0 1 -8 8h-2a8 8 0 0 1 -8 -8v-2a2 2 0 0 1 2 -2z" /><path d="M17 13h1a3 3 0 0 1 0 6h-1" /><path d="M6 8v-1a2 2 0 0 1 2 -2h4a2 2 0 0 1 2 2v1" /><path d="M8 4l0 -1" /><path d="M12 4l0 -1" /></svg>
